<svg width="140" height="30" viewBox="0 0 140 30" fill="none" xmlns="http://www.w3.org/2000/svg">
<mask id="path-1-outside-1_5_14" maskUnits="userSpaceOnUse" x="-1" y="-1" width="142" height="32" fill="black">
<rect fill="white" x="-1" y="-1" width="142" height="32"/>
<path d="M3.2 13.52H18V16.04H3.2V13.52ZM3.52 26.44H20.36V29H0.56V0.999998H19.76V3.56H3.52V26.44ZM27.3884 29.2C26.8018 29.2 26.2951 28.9867 25.8684 28.56C25.4684 28.1333 25.2684 27.6133 25.2684 27C25.2684 26.36 25.4684 25.84 25.8684 25.44C26.2951 25.04 26.8018 24.84 27.3884 24.84C27.9751 24.84 28.4684 25.04 28.8684 25.44C29.2951 25.84 29.5084 26.36 29.5084 27C29.5084 27.6133 29.2951 28.1333 28.8684 28.56C28.4684 28.9867 27.9751 29.2 27.3884 29.2ZM47.5638 29.24C45.4571 29.24 43.5104 28.8933 41.7238 28.2C39.9371 27.48 38.3904 26.48 37.0838 25.2C35.7771 23.92 34.7504 22.4133 34.0038 20.68C33.2838 18.9467 32.9238 17.0533 32.9238 15C32.9238 12.9467 33.2838 11.0533 34.0038 9.32C34.7504 7.58667 35.7771 6.08 37.0838 4.8C38.4171 3.52 39.9771 2.53333 41.7638 1.84C43.5504 1.12 45.4971 0.759999 47.6038 0.759999C49.6304 0.759999 51.5371 1.10667 53.3238 1.8C55.1104 2.46667 56.6171 3.48 57.8438 4.84L55.9638 6.72C54.8171 5.54667 53.5504 4.70667 52.1638 4.2C50.7771 3.66667 49.2838 3.4 47.6838 3.4C46.0038 3.4 44.4438 3.69333 43.0038 4.28C41.5638 4.84 40.3104 5.65333 39.2438 6.72C38.1771 7.76 37.3371 8.98667 36.7237 10.4C36.1371 11.7867 35.8438 13.32 35.8438 15C35.8438 16.68 36.1371 18.2267 36.7237 19.64C37.3371 21.0267 38.1771 22.2533 39.2438 23.32C40.3104 24.36 41.5638 25.1733 43.0038 25.76C44.4438 26.32 46.0038 26.6 47.6838 26.6C49.2838 26.6 50.7771 26.3333 52.1638 25.8C53.5504 25.2667 54.8171 24.4133 55.9638 23.24L57.8438 25.12C56.6171 26.48 55.1104 27.5067 53.3238 28.2C51.5371 28.8933 49.6171 29.24 47.5638 29.24ZM58.9706 29L71.7706 0.999998H74.6906L87.4906 29H84.3706L72.6106 2.72H73.8106L62.0506 29H58.9706ZM64.0106 21.52L64.8906 19.12H81.1706L82.0506 21.52H64.0106ZM92.1225 29V0.999998H102.603C104.976 0.999998 107.016 1.38667 108.723 2.16C110.429 2.90667 111.736 4 112.643 5.44C113.576 6.85333 114.043 8.57333 114.043 10.6C114.043 12.5733 113.576 14.28 112.643 15.72C111.736 17.1333 110.429 18.2267 108.723 19C107.016 19.7467 104.976 20.12 102.603 20.12H93.7625L95.0825 18.76V29H92.1225ZM111.243 29L104.043 18.84H107.243L114.483 29H111.243ZM95.0825 19L93.7625 17.6H102.523C105.323 17.6 107.443 16.9867 108.883 15.76C110.349 14.5333 111.082 12.8133 111.082 10.6C111.082 8.36 110.349 6.62667 108.883 5.4C107.443 4.17333 105.323 3.56 102.523 3.56H93.7625L95.0825 2.16V19ZM128.749 29.24C126.669 29.24 124.669 28.9067 122.749 28.24C120.855 27.5467 119.389 26.6667 118.349 25.6L119.509 23.32C120.495 24.28 121.815 25.0933 123.469 25.76C125.149 26.4 126.909 26.72 128.749 26.72C130.509 26.72 131.935 26.5067 133.029 26.08C134.149 25.6267 134.962 25.0267 135.469 24.28C136.002 23.5333 136.269 22.7067 136.269 21.8C136.269 20.7067 135.949 19.8267 135.309 19.16C134.695 18.4933 133.882 17.9733 132.869 17.6C131.855 17.2 130.735 16.8533 129.509 16.56C128.282 16.2667 127.055 15.96 125.829 15.64C124.602 15.2933 123.469 14.84 122.429 14.28C121.415 13.72 120.589 12.9867 119.949 12.08C119.335 11.1467 119.029 9.93333 119.029 8.44C119.029 7.05333 119.389 5.78667 120.109 4.64C120.855 3.46666 121.989 2.53333 123.509 1.84C125.029 1.12 126.975 0.759999 129.349 0.759999C130.922 0.759999 132.482 0.986666 134.029 1.44C135.575 1.86667 136.909 2.46666 138.029 3.24L137.029 5.6C135.829 4.8 134.549 4.21333 133.189 3.84C131.855 3.46667 130.562 3.28 129.309 3.28C127.629 3.28 126.242 3.50667 125.149 3.96C124.055 4.41333 123.242 5.02667 122.709 5.8C122.202 6.54666 121.949 7.4 121.949 8.36C121.949 9.45333 122.255 10.3333 122.869 11C123.509 11.6667 124.335 12.1867 125.349 12.56C126.389 12.9333 127.522 13.2667 128.749 13.56C129.975 13.8533 131.189 14.1733 132.389 14.52C133.615 14.8667 134.735 15.32 135.749 15.88C136.789 16.4133 137.615 17.1333 138.229 18.04C138.869 18.9467 139.189 20.1333 139.189 21.6C139.189 22.96 138.815 24.2267 138.069 25.4C137.322 26.5467 136.175 27.48 134.629 28.2C133.109 28.8933 131.149 29.24 128.749 29.24Z"/>
</mask>
<path d="M3.2 13.52H18V16.04H3.2V13.52ZM3.52 26.44H20.36V29H0.56V0.999998H19.76V3.56H3.52V26.44ZM27.3884 29.2C26.8018 29.2 26.2951 28.9867 25.8684 28.56C25.4684 28.1333 25.2684 27.6133 25.2684 27C25.2684 26.36 25.4684 25.84 25.8684 25.44C26.2951 25.04 26.8018 24.84 27.3884 24.84C27.9751 24.84 28.4684 25.04 28.8684 25.44C29.2951 25.84 29.5084 26.36 29.5084 27C29.5084 27.6133 29.2951 28.1333 28.8684 28.56C28.4684 28.9867 27.9751 29.2 27.3884 29.2ZM47.5638 29.24C45.4571 29.24 43.5104 28.8933 41.7238 28.2C39.9371 27.48 38.3904 26.48 37.0838 25.2C35.7771 23.92 34.7504 22.4133 34.0038 20.68C33.2838 18.9467 32.9238 17.0533 32.9238 15C32.9238 12.9467 33.2838 11.0533 34.0038 9.32C34.7504 7.58667 35.7771 6.08 37.0838 4.8C38.4171 3.52 39.9771 2.53333 41.7638 1.84C43.5504 1.12 45.4971 0.759999 47.6038 0.759999C49.6304 0.759999 51.5371 1.10667 53.3238 1.8C55.1104 2.46667 56.6171 3.48 57.8438 4.84L55.9638 6.72C54.8171 5.54667 53.5504 4.70667 52.1638 4.2C50.7771 3.66667 49.2838 3.4 47.6838 3.4C46.0038 3.4 44.4438 3.69333 43.0038 4.28C41.5638 4.84 40.3104 5.65333 39.2438 6.72C38.1771 7.76 37.3371 8.98667 36.7237 10.4C36.1371 11.7867 35.8438 13.32 35.8438 15C35.8438 16.68 36.1371 18.2267 36.7237 19.64C37.3371 21.0267 38.1771 22.2533 39.2438 23.32C40.3104 24.36 41.5638 25.1733 43.0038 25.76C44.4438 26.32 46.0038 26.6 47.6838 26.6C49.2838 26.6 50.7771 26.3333 52.1638 25.8C53.5504 25.2667 54.8171 24.4133 55.9638 23.24L57.8438 25.12C56.6171 26.48 55.1104 27.5067 53.3238 28.2C51.5371 28.8933 49.6171 29.24 47.5638 29.24ZM58.9706 29L71.7706 0.999998H74.6906L87.4906 29H84.3706L72.6106 2.72H73.8106L62.0506 29H58.9706ZM64.0106 21.52L64.8906 19.12H81.1706L82.0506 21.52H64.0106ZM92.1225 29V0.999998H102.603C104.976 0.999998 107.016 1.38667 108.723 2.16C110.429 2.90667 111.736 4 112.643 5.44C113.576 6.85333 114.043 8.57333 114.043 10.6C114.043 12.5733 113.576 14.28 112.643 15.72C111.736 17.1333 110.429 18.2267 108.723 19C107.016 19.7467 104.976 20.12 102.603 20.12H93.7625L95.0825 18.76V29H92.1225ZM111.243 29L104.043 18.84H107.243L114.483 29H111.243ZM95.0825 19L93.7625 17.6H102.523C105.323 17.6 107.443 16.9867 108.883 15.76C110.349 14.5333 111.082 12.8133 111.082 10.6C111.082 8.36 110.349 6.62667 108.883 5.4C107.443 4.17333 105.323 3.56 102.523 3.56H93.7625L95.0825 2.16V19ZM128.749 29.24C126.669 29.24 124.669 28.9067 122.749 28.24C120.855 27.5467 119.389 26.6667 118.349 25.6L119.509 23.32C120.495 24.28 121.815 25.0933 123.469 25.76C125.149 26.4 126.909 26.72 128.749 26.72C130.509 26.72 131.935 26.5067 133.029 26.08C134.149 25.6267 134.962 25.0267 135.469 24.28C136.002 23.5333 136.269 22.7067 136.269 21.8C136.269 20.7067 135.949 19.8267 135.309 19.16C134.695 18.4933 133.882 17.9733 132.869 17.6C131.855 17.2 130.735 16.8533 129.509 16.56C128.282 16.2667 127.055 15.96 125.829 15.64C124.602 15.2933 123.469 14.84 122.429 14.28C121.415 13.72 120.589 12.9867 119.949 12.08C119.335 11.1467 119.029 9.93333 119.029 8.44C119.029 7.05333 119.389 5.78667 120.109 4.64C120.855 3.46666 121.989 2.53333 123.509 1.84C125.029 1.12 126.975 0.759999 129.349 0.759999C130.922 0.759999 132.482 0.986666 134.029 1.44C135.575 1.86667 136.909 2.46666 138.029 3.24L137.029 5.6C135.829 4.8 134.549 4.21333 133.189 3.84C131.855 3.46667 130.562 3.28 129.309 3.28C127.629 3.28 126.242 3.50667 125.149 3.96C124.055 4.41333 123.242 5.02667 122.709 5.8C122.202 6.54666 121.949 7.4 121.949 8.36C121.949 9.45333 122.255 10.3333 122.869 11C123.509 11.6667 124.335 12.1867 125.349 12.56C126.389 12.9333 127.522 13.2667 128.749 13.56C129.975 13.8533 131.189 14.1733 132.389 14.52C133.615 14.8667 134.735 15.32 135.749 15.88C136.789 16.4133 137.615 17.1333 138.229 18.04C138.869 18.9467 139.189 20.1333 139.189 21.6C139.189 22.96 138.815 24.2267 138.069 25.4C137.322 26.5467 136.175 27.48 134.629 28.2C133.109 28.8933 131.149 29.24 128.749 29.24Z" fill="#1E1E1E"/>
<path d="M3.2 13.52V12.52H2.2V13.52H3.2ZM18 13.52H19V12.52H18V13.52ZM18 16.04V17.04H19V16.04H18ZM3.2 16.04H2.2V17.04H3.2V16.04ZM3.52 26.44H2.52V27.44H3.52V26.44ZM20.36 26.44H21.36V25.44H20.36V26.44ZM20.36 29V30H21.36V29H20.36ZM0.56 29H-0.44V30H0.56V29ZM0.56 0.999998V-1.90735e-06H-0.44V0.999998H0.56ZM19.76 0.999998H20.76V-1.90735e-06H19.76V0.999998ZM19.76 3.56V4.56H20.76V3.56H19.76ZM3.52 3.56V2.56H2.52V3.56H3.52ZM3.2 14.52H18V12.52H3.2V14.52ZM17 13.52V16.04H19V13.52H17ZM18 15.04H3.2V17.04H18V15.04ZM4.2 16.04V13.52H2.2V16.04H4.2ZM3.52 27.44H20.36V25.44H3.52V27.44ZM19.36 26.44V29H21.36V26.44H19.36ZM20.36 28H0.56V30H20.36V28ZM1.56 29V0.999998H-0.44V29H1.56ZM0.56 2H19.76V-1.90735e-06H0.56V2ZM18.76 0.999998V3.56H20.76V0.999998H18.76ZM19.76 2.56H3.52V4.56H19.76V2.56ZM2.52 3.56V26.44H4.52V3.56H2.52ZM25.8684 28.56L25.1389 29.2439L25.1499 29.2557L25.1613 29.2671L25.8684 28.56ZM25.8684 25.44L25.1845 24.7105L25.1727 24.7215L25.1613 24.7329L25.8684 25.44ZM28.8684 25.44L28.1613 26.1471L28.1727 26.1585L28.1845 26.1695L28.8684 25.44ZM28.8684 28.56L28.1613 27.8529L28.1499 27.8643L28.1389 27.8761L28.8684 28.56ZM27.3884 28.2C27.0753 28.2 26.8207 28.098 26.5755 27.8529L25.1613 29.2671C25.7695 29.8753 26.5282 30.2 27.3884 30.2V28.2ZM26.598 27.8761C26.3808 27.6445 26.2684 27.3729 26.2684 27H24.2684C24.2684 27.8538 24.556 28.6222 25.1389 29.2439L26.598 27.8761ZM26.2684 27C26.2684 26.5872 26.3883 26.3343 26.5755 26.1471L25.1613 24.7329C24.5486 25.3457 24.2684 26.1328 24.2684 27H26.2684ZM26.5524 26.1695C26.7931 25.9439 27.0549 25.84 27.3884 25.84V23.84C26.5486 23.84 25.7972 24.1361 25.1845 24.7105L26.5524 26.1695ZM27.3884 25.84C27.7209 25.84 27.9565 25.9423 28.1613 26.1471L29.5755 24.7329C28.9804 24.1377 28.2293 23.84 27.3884 23.84V25.84ZM28.1845 26.1695C28.3893 26.3615 28.5084 26.6074 28.5084 27H30.5084C30.5084 26.1126 30.2009 25.3185 29.5524 24.7105L28.1845 26.1695ZM28.5084 27C28.5084 27.353 28.397 27.6172 28.1613 27.8529L29.5755 29.2671C30.1932 28.6495 30.5084 27.8736 30.5084 27H28.5084ZM28.1389 27.8761C27.9286 28.1004 27.6997 28.2 27.3884 28.2V30.2C28.2505 30.2 29.0083 29.873 29.598 29.2439L28.1389 27.8761ZM41.7238 28.2L41.3499 29.1276L41.362 29.1323L41.7238 28.2ZM37.0838 25.2L36.384 25.9144L36.384 25.9144L37.0838 25.2ZM34.0038 20.68L33.0802 21.0636L33.0853 21.0756L34.0038 20.68ZM34.0038 9.32L33.0853 8.92434L33.0803 8.93639L34.0038 9.32ZM37.0838 4.8L36.3912 4.07858L36.384 4.08564L37.0838 4.8ZM41.7638 1.84L42.1256 2.77234L42.1375 2.76752L41.7638 1.84ZM53.3238 1.8L52.9619 2.73234L52.9742 2.7369L53.3238 1.8ZM57.8438 4.84L58.5509 5.54711L59.2225 4.87551L58.5863 4.17023L57.8438 4.84ZM55.9638 6.72L55.2486 7.41893L55.9556 8.14239L56.6709 7.42711L55.9638 6.72ZM52.1638 4.2L51.8048 5.13335L51.8126 5.13637L51.8206 5.13926L52.1638 4.2ZM43.0038 4.28L43.3662 5.212L43.3736 5.20911L43.381 5.20609L43.0038 4.28ZM39.2438 6.72L39.9419 7.43606L39.9509 7.42711L39.2438 6.72ZM36.7237 10.4L35.8064 10.0019L35.8028 10.0104L36.7237 10.4ZM36.7237 19.64L35.8002 20.0234L35.8046 20.034L35.8092 20.0445L36.7237 19.64ZM39.2438 23.32L38.5366 24.0272L38.5457 24.036L39.2438 23.32ZM43.0038 25.76L42.6265 26.6861L42.6339 26.6891L42.6413 26.692L43.0038 25.76ZM52.1638 25.8L52.5227 26.7333L52.5227 26.7333L52.1638 25.8ZM55.9638 23.24L56.6709 22.5329L55.9556 21.8176L55.2486 22.5411L55.9638 23.24ZM57.8438 25.12L58.5863 25.7898L59.2225 25.0845L58.5509 24.4129L57.8438 25.12ZM53.3238 28.2L53.6855 29.1323L53.6855 29.1323L53.3238 28.2ZM47.5638 28.24C45.5685 28.24 43.7459 27.9121 42.0855 27.2677L41.362 29.1323C43.2749 29.8746 45.3456 30.24 47.5638 30.24V28.24ZM42.0975 27.2725C40.4259 26.5988 38.9916 25.6691 37.7835 24.4856L36.384 25.9144C37.7892 27.2909 39.4483 28.3612 41.35 29.1275L42.0975 27.2725ZM37.7835 24.4856C36.5727 23.2996 35.619 21.9021 34.9222 20.2844L33.0853 21.0756C33.8818 22.9245 34.9814 24.5404 36.384 25.9144L37.7835 24.4856ZM34.9272 20.2964C34.2623 18.6956 33.9238 16.9341 33.9238 15H31.9238C31.9238 17.1725 32.3052 19.1977 33.0803 21.0636L34.9272 20.2964ZM33.9238 15C33.9238 13.0659 34.2623 11.3044 34.9272 9.70361L33.0803 8.93639C32.3052 10.8023 31.9238 12.8275 31.9238 15H33.9238ZM34.9222 9.71562C35.619 8.09786 36.5727 6.70043 37.7835 5.51436L36.384 4.08564C34.9814 5.45956 33.8818 7.07547 33.0853 8.92438L34.9222 9.71562ZM37.7763 5.52139C39.0108 4.33621 40.4573 3.41963 42.1255 2.77226L41.402 0.907733C39.4968 1.64704 37.8233 2.70379 36.3912 4.07861L37.7763 5.52139ZM42.1375 2.76752C43.7947 2.0997 45.6131 1.76 47.6038 1.76V-0.240001C45.381 -0.240001 43.3061 0.140301 41.39 0.91248L42.1375 2.76752ZM47.6038 1.76C49.5139 1.76 51.2972 2.08623 52.962 2.73227L53.6855 0.867734C51.777 0.127101 49.747 -0.240001 47.6038 -0.240001V1.76ZM52.9742 2.7369C54.6167 3.34979 55.9866 4.27408 57.1012 5.50977L58.5863 4.17023C57.2475 2.68592 55.6041 1.58355 53.6733 0.863097L52.9742 2.7369ZM57.1366 4.13289L55.2566 6.01289L56.6709 7.42711L58.5509 5.54711L57.1366 4.13289ZM56.6789 6.02107C55.4395 4.75284 54.049 3.82417 52.5069 3.26073L51.8206 5.13926C53.0519 5.58916 54.1946 6.3405 55.2486 7.41893L56.6789 6.02107ZM52.5227 3.26665C51.013 2.68597 49.397 2.4 47.6838 2.4V4.4C49.1705 4.4 50.5412 4.64736 51.8048 5.13335L52.5227 3.26665ZM47.6838 2.4C45.8849 2.4 44.1956 2.71462 42.6265 3.35391L43.381 5.20609C44.6919 4.67204 46.1226 4.4 47.6838 4.4V2.4ZM42.6413 3.34799C41.0753 3.957 39.7038 4.84576 38.5366 6.01289L39.9509 7.42711C40.9171 6.4609 42.0522 5.723 43.3662 5.212L42.6413 3.34799ZM38.5456 6.004C37.3827 7.13783 36.4697 8.47352 35.8064 10.0019L37.6411 10.7981C38.2045 9.49981 38.9714 8.38217 39.9419 7.436L38.5456 6.004ZM35.8028 10.0104C35.1582 11.5338 34.8438 13.2017 34.8438 15H36.8438C36.8438 13.4383 37.1159 12.0395 37.6447 10.7896L35.8028 10.0104ZM34.8438 15C34.8438 16.7986 35.1583 18.4771 35.8002 20.0234L37.6473 19.2566C37.1159 17.9762 36.8438 16.5614 36.8438 15H34.8438ZM35.8092 20.0445C36.4722 21.5434 37.3823 22.8728 38.5366 24.0271L39.9509 22.6129C38.9719 21.6339 38.202 20.51 37.6383 19.2355L35.8092 20.0445ZM38.5457 24.036C39.7087 25.17 41.0723 26.0529 42.6265 26.6861L43.381 24.8339C42.0552 24.2938 40.9121 23.55 39.9419 22.604L38.5457 24.036ZM42.6413 26.692C44.2066 27.3007 45.8906 27.6 47.6838 27.6V25.6C46.1169 25.6 44.6809 25.3393 43.3662 24.828L42.6413 26.692ZM47.6838 27.6C49.397 27.6 51.013 27.314 52.5227 26.7333L51.8048 24.8667C50.5412 25.3526 49.1705 25.6 47.6838 25.6V27.6ZM52.5227 26.7333C54.057 26.1432 55.4423 25.2043 56.6789 23.9389L55.2486 22.5411C54.1918 23.6224 53.0438 24.3901 51.8048 24.8667L52.5227 26.7333ZM55.2566 23.9471L57.1366 25.8271L58.5509 24.4129L56.6709 22.5329L55.2566 23.9471ZM57.1012 24.4502C55.9841 25.6888 54.6099 26.6282 52.962 27.2677L53.6855 29.1323C55.6109 28.3851 57.2501 27.2712 58.5863 25.7898L57.1012 24.4502ZM52.962 27.2677C51.2987 27.9132 49.5022 28.24 47.5638 28.24V30.24C49.7319 30.24 51.7755 29.8735 53.6855 29.1323L52.962 27.2677ZM58.9706 29L58.0612 28.5842L57.4139 30H58.9706V29ZM71.7706 0.999998V-1.90735e-06H71.1282L70.8612 0.584238L71.7706 0.999998ZM74.6906 0.999998L75.6001 0.584238L75.333 -1.90735e-06H74.6906V0.999998ZM87.4906 29V30H89.0473L88.4001 28.5842L87.4906 29ZM84.3706 29L83.4578 29.4085L83.7226 30H84.3706V29ZM72.6106 2.72V1.72H71.0676L71.6978 3.12846L72.6106 2.72ZM73.8106 2.72L74.7234 3.12846L75.3537 1.72H73.8106V2.72ZM62.0506 29V30H62.6987L62.9634 29.4085L62.0506 29ZM64.0106 21.52L63.0717 21.1757L62.5789 22.52H64.0106V21.52ZM64.8906 19.12V18.12H64.1922L63.9517 18.7757L64.8906 19.12ZM81.1706 19.12L82.1095 18.7757L81.8691 18.12H81.1706V19.12ZM82.0506 21.52V22.52H83.4824L82.9895 21.1757L82.0506 21.52ZM59.8801 29.4158L72.6801 1.41576L70.8612 0.584238L58.0612 28.5842L59.8801 29.4158ZM71.7706 2H74.6906V-1.90735e-06H71.7706V2ZM73.7812 1.41576L86.5812 29.4158L88.4001 28.5842L75.6001 0.584238L73.7812 1.41576ZM87.4906 28H84.3706V30H87.4906V28ZM85.2834 28.5915L73.5234 2.31154L71.6978 3.12846L83.4578 29.4085L85.2834 28.5915ZM72.6106 3.72H73.8106V1.72H72.6106V3.72ZM72.8978 2.31154L61.1378 28.5915L62.9634 29.4085L74.7234 3.12846L72.8978 2.31154ZM62.0506 28H58.9706V30H62.0506V28ZM64.9495 21.8643L65.8295 19.4643L63.9517 18.7757L63.0717 21.1757L64.9495 21.8643ZM64.8906 20.12H81.1706V18.12H64.8906V20.12ZM80.2318 19.4643L81.1118 21.8643L82.9895 21.1757L82.1095 18.7757L80.2318 19.4643ZM82.0506 20.52H64.0106V22.52H82.0506V20.52ZM92.1225 29H91.1225V30H92.1225V29ZM92.1225 0.999998V-1.90735e-06H91.1225V0.999998H92.1225ZM108.723 2.16L108.31 3.07093L108.322 3.07616L108.723 2.16ZM112.643 5.44L111.796 5.97281L111.802 5.982L111.808 5.99106L112.643 5.44ZM112.643 15.72L111.803 15.1761L111.801 15.18L112.643 15.72ZM108.723 19L109.123 19.9162L109.135 19.9109L108.723 19ZM93.7625 20.12L93.0449 19.4235L91.3983 21.12H93.7625V20.12ZM95.0825 18.76H96.0825V16.2939L94.3649 18.0635L95.0825 18.76ZM95.0825 29V30H96.0825V29H95.0825ZM111.243 29L110.427 29.5782L110.726 30H111.243V29ZM104.043 18.84V17.84H102.108L103.227 19.4182L104.043 18.84ZM107.243 18.84L108.057 18.2597L107.758 17.84H107.243V18.84ZM114.483 29V30H116.423L115.297 28.4197L114.483 29ZM95.0825 19L94.3549 19.686L96.0825 21.5183V19H95.0825ZM93.7625 17.6V16.6H91.4452L93.0349 18.286L93.7625 17.6ZM108.883 15.76L108.241 14.9929L108.234 14.9988L108.883 15.76ZM108.883 5.4L108.234 6.16127L108.241 6.16708L108.883 5.4ZM93.7625 3.56L93.0349 2.87399L91.4452 4.56H93.7625V3.56ZM95.0825 2.16H96.0825V-0.358303L94.3549 1.47399L95.0825 2.16ZM93.1225 29V0.999998H91.1225V29H93.1225ZM92.1225 2H102.603V-1.90735e-06H92.1225V2ZM102.603 2C104.87 2 106.762 2.36973 108.31 3.07085L109.135 1.24915C107.269 0.403598 105.082 -1.90735e-06 102.603 -1.90735e-06V2ZM108.322 3.07616C109.863 3.75048 111.006 4.71836 111.796 5.97281L113.489 4.90718C112.465 3.28164 110.995 2.06285 109.123 1.24384L108.322 3.07616ZM111.808 5.99106C112.614 7.21107 113.043 8.73018 113.043 10.6H115.043C115.043 8.41648 114.538 6.4956 113.477 4.88894L111.808 5.99106ZM113.043 10.6C113.043 12.41 112.617 13.9213 111.803 15.1761L113.482 16.2639C114.535 14.6387 115.043 12.7367 115.043 10.6H113.043ZM111.801 15.18C111.01 16.4125 109.862 17.3859 108.31 18.0891L109.135 19.9109C110.997 19.0674 112.462 17.8541 113.484 16.26L111.801 15.18ZM108.322 18.0838C106.771 18.7623 104.874 19.12 102.603 19.12V21.12C105.077 21.12 107.261 20.731 109.123 19.9162L108.322 18.0838ZM102.603 19.12H93.7625V21.12H102.603V19.12ZM94.4801 20.8165L95.8001 19.4565L94.3649 18.0635L93.0449 19.4235L94.4801 20.8165ZM94.0825 18.76V29H96.0825V18.76H94.0825ZM95.0825 28H92.1225V30H95.0825V28ZM112.058 28.4218L104.858 18.2618L103.227 19.4182L110.427 29.5782L112.058 28.4218ZM104.043 19.84H107.243V17.84H104.043V19.84ZM106.428 19.4203L113.668 29.5803L115.297 28.4197L108.057 18.2597L106.428 19.4203ZM114.483 28H111.243V30H114.483V28ZM95.8101 18.314L94.4901 16.914L93.0349 18.286L94.3549 19.686L95.8101 18.314ZM93.7625 18.6H102.523V16.6H93.7625V18.6ZM102.523 18.6C105.449 18.6 107.841 17.9612 109.531 16.5212L108.234 14.9988C107.044 16.0121 105.196 16.6 102.523 16.6V18.6ZM109.524 16.5271C111.255 15.0794 112.082 13.0575 112.082 10.6H110.082C110.082 12.5692 109.443 13.9873 108.241 14.9929L109.524 16.5271ZM112.082 10.6C112.082 8.12028 111.258 6.08304 109.524 4.63292L108.241 6.16708C109.44 7.17029 110.082 8.59972 110.082 10.6H112.082ZM109.531 4.63876C107.841 3.1988 105.449 2.56 102.523 2.56V4.56C105.196 4.56 107.044 5.14787 108.234 6.16124L109.531 4.63876ZM102.523 2.56H93.7625V4.56H102.523V2.56ZM94.4901 4.24601L95.8101 2.84601L94.3549 1.47399L93.0349 2.87399L94.4901 4.24601ZM94.0825 2.16V19H96.0825V2.16H94.0825ZM122.749 28.24L122.405 29.179L122.413 29.1819L122.421 29.1847L122.749 28.24ZM118.349 25.6L117.457 25.1465L117.133 25.7851L117.633 26.2981L118.349 25.6ZM119.509 23.32L120.206 22.6033L119.233 21.6565L118.617 22.8665L119.509 23.32ZM123.469 25.76L123.095 26.6874L123.104 26.6911L123.113 26.6945L123.469 25.76ZM133.029 26.08L133.392 27.0117L133.404 27.0069L133.029 26.08ZM135.469 24.28L134.655 23.6988L134.648 23.7085L134.641 23.7185L135.469 24.28ZM135.309 19.16L134.573 19.8371L134.58 19.8449L134.587 19.8525L135.309 19.16ZM132.869 17.6L132.502 18.5302L132.512 18.5344L132.523 18.5383L132.869 17.6ZM125.829 15.64L125.557 16.6023L125.567 16.6051L125.576 16.6076L125.829 15.64ZM122.429 14.28L121.945 15.1553L121.955 15.1605L122.429 14.28ZM119.949 12.08L119.113 12.6292L119.122 12.6431L119.132 12.6567L119.949 12.08ZM120.109 4.64L119.265 4.10311L119.262 4.10823L120.109 4.64ZM123.509 1.84L123.924 2.74982L123.93 2.74682L123.937 2.74374L123.509 1.84ZM134.029 1.44L133.747 2.39963L133.755 2.40187L133.763 2.40399L134.029 1.44ZM138.029 3.24L138.95 3.63015L139.267 2.88001L138.597 2.4171L138.029 3.24ZM137.029 5.6L136.474 6.43205L137.479 7.10169L137.95 5.99015L137.029 5.6ZM133.189 3.84L132.919 4.80298L132.924 4.80433L133.189 3.84ZM125.149 3.96L124.766 3.03626L124.766 3.03626L125.149 3.96ZM122.709 5.8L121.886 5.23225L121.881 5.2385L122.709 5.8ZM122.869 11L122.133 11.6771L122.14 11.6849L122.147 11.6925L122.869 11ZM125.349 12.56L125.003 13.4984L125.011 13.5012L125.349 12.56ZM128.749 13.56L128.516 14.5326L128.516 14.5326L128.749 13.56ZM132.389 14.52L132.111 15.4807L132.117 15.4823L132.389 14.52ZM135.749 15.88L135.265 16.7552L135.279 16.7627L135.292 16.7698L135.749 15.88ZM138.229 18.04L137.4 18.6003L137.406 18.6086L137.412 18.6167L138.229 18.04ZM138.069 25.4L138.907 25.9457L138.912 25.9369L138.069 25.4ZM134.629 28.2L135.044 29.1098L135.051 29.1066L134.629 28.2ZM128.749 28.24C126.778 28.24 124.889 27.9245 123.077 27.2953L122.421 29.1847C124.449 29.8888 126.56 30.24 128.749 30.24V28.24ZM123.093 27.301C121.293 26.6419 119.97 25.8305 119.065 24.9019L117.633 26.2981C118.807 27.5028 120.418 28.4515 122.405 29.179L123.093 27.301ZM119.24 26.0535L120.4 23.7735L118.617 22.8665L117.457 25.1465L119.24 26.0535ZM118.811 24.0367C119.914 25.1097 121.355 25.9859 123.095 26.6874L123.843 24.8326C122.276 24.2008 121.077 23.4503 120.206 22.6033L118.811 24.0367ZM123.113 26.6945C124.909 27.3788 126.79 27.72 128.749 27.72V25.72C127.027 25.72 125.388 25.4212 123.825 24.8255L123.113 26.6945ZM128.749 27.72C130.577 27.72 132.14 27.5002 133.392 27.0116L132.665 25.1484C131.731 25.5132 130.44 25.72 128.749 25.72V27.72ZM133.404 27.0069C134.647 26.504 135.646 25.7992 136.296 24.8415L134.641 23.7185C134.278 24.2542 133.651 24.7494 132.654 25.1531L133.404 27.0069ZM136.282 24.8612C136.935 23.9472 137.269 22.9178 137.269 21.8H135.269C135.269 22.4956 135.069 23.1195 134.655 23.6988L136.282 24.8612ZM137.269 21.8C137.269 20.499 136.881 19.3539 136.03 18.4675L134.587 19.8525C135.016 20.2995 135.269 20.9143 135.269 21.8H137.269ZM136.045 18.4829C135.305 17.679 134.348 17.0794 133.214 16.6617L132.523 18.5383C133.416 18.8673 134.086 19.3077 134.573 19.8371L136.045 18.4829ZM133.236 16.6698C132.173 16.2501 131.007 15.89 129.741 15.5874L129.276 17.5326C130.464 17.8166 131.538 18.1499 132.502 18.5302L133.236 16.6698ZM129.741 15.5874C128.521 15.2957 127.301 14.9907 126.081 14.6724L125.576 16.6076C126.81 16.9293 128.043 17.2377 129.276 17.5326L129.741 15.5874ZM126.101 14.6777C124.939 14.3493 123.874 13.9224 122.903 13.3995L121.955 15.1605C123.064 15.7576 124.265 16.2374 125.557 16.6023L126.101 14.6777ZM122.912 13.4048C122.025 12.9146 121.315 12.2812 120.766 11.5033L119.132 12.6567C119.863 13.6921 120.805 14.5254 121.945 15.1552L122.912 13.4048ZM120.784 11.5308C120.309 10.8071 120.029 9.80249 120.029 8.44H118.029C118.029 10.0642 118.362 11.4862 119.113 12.6292L120.784 11.5308ZM120.029 8.44C120.029 7.23667 120.338 6.1551 120.956 5.17177L119.262 4.10823C118.439 5.41823 118.029 6.87 118.029 8.44H120.029ZM120.952 5.17687C121.576 4.19701 122.544 3.37924 123.924 2.74982L123.094 0.93018C121.434 1.68742 120.135 2.73632 119.265 4.10312L120.952 5.17687ZM123.937 2.74374C125.28 2.10762 127.067 1.76 129.349 1.76V-0.240001C126.884 -0.240001 124.778 0.132374 123.081 0.936261L123.937 2.74374ZM129.349 1.76C130.825 1.76 132.29 1.97241 133.747 2.39963L134.31 0.480371C132.674 0.000919726 131.02 -0.240001 129.349 -0.240001V1.76ZM133.763 2.40399C135.22 2.80608 136.448 3.36341 137.461 4.0629L138.597 2.4171C137.37 1.56992 135.93 0.927253 134.295 0.476007L133.763 2.40399ZM137.108 2.84985L136.108 5.20985L137.95 5.99015L138.95 3.63015L137.108 2.84985ZM137.583 4.76795C136.297 3.91 134.919 3.27795 133.453 2.87567L132.924 4.80433C134.179 5.14871 135.361 5.69 136.474 6.43205L137.583 4.76795ZM133.458 2.87704C132.046 2.48167 130.662 2.28 129.309 2.28V4.28C130.462 4.28 131.664 4.45166 132.919 4.80296L133.458 2.87704ZM129.309 2.28C127.548 2.28 126.02 2.51617 124.766 3.03626L125.532 4.88374C126.464 4.49716 127.709 4.28 129.309 4.28V2.28ZM124.766 3.03626C123.541 3.54428 122.553 4.26374 121.886 5.23226L123.532 6.36773C123.931 5.78959 124.57 5.28239 125.532 4.88374L124.766 3.03626ZM121.881 5.2385C121.255 6.16165 120.949 7.21325 120.949 8.36H122.949C122.949 7.58674 123.149 6.93168 123.536 6.3615L121.881 5.2385ZM120.949 8.36C120.949 9.64939 121.316 10.7891 122.133 11.6771L123.605 10.3229C123.195 9.87755 122.949 9.25727 122.949 8.36H120.949ZM122.147 11.6925C122.909 12.4855 123.871 13.0814 125.003 13.4983L125.694 11.6217C124.799 11.2919 124.109 10.8478 123.59 10.3075L122.147 11.6925ZM125.011 13.5012C126.09 13.8885 127.259 14.2319 128.516 14.5326L128.981 12.5874C127.785 12.3014 126.688 11.9782 125.687 11.6188L125.011 13.5012ZM128.516 14.5326C129.728 14.8223 130.926 15.1384 132.111 15.4807L132.666 13.5593C131.451 13.2083 130.223 12.8843 128.981 12.5874L128.516 14.5326ZM132.117 15.4823C133.277 15.8102 134.325 16.2358 135.265 16.7552L136.232 15.0048C135.146 14.4042 133.954 13.9231 132.661 13.5577L132.117 15.4823ZM135.292 16.7698C136.193 17.2317 136.888 17.8424 137.4 18.6003L139.057 17.4797C138.343 16.4242 137.384 15.5949 136.205 14.9902L135.292 16.7698ZM137.412 18.6167C137.9 19.3079 138.189 20.2742 138.189 21.6H140.189C140.189 19.9925 139.838 18.5854 139.046 17.4633L137.412 18.6167ZM138.189 21.6C138.189 22.7653 137.872 23.8464 137.225 24.8631L138.912 25.9369C139.759 24.6069 140.189 23.1547 140.189 21.6H138.189ZM137.231 24.8543C136.609 25.8096 135.625 26.633 134.207 27.2934L135.051 29.1066C136.725 28.327 138.035 27.2837 138.907 25.9457L137.231 24.8543ZM134.214 27.2902C132.868 27.904 131.063 28.24 128.749 28.24V30.24C131.234 30.24 133.35 29.8826 135.044 29.1098L134.214 27.2902Z" fill="black" mask="url(#path-1-outside-1_5_14)"/>
</svg>
